:version 1.10
:name ASF
:units
  mass 1
  length 1
  angle deg
:documentation
  ASF file generated by Kaydara
:root
  axis xyz
  order  tx ty tz rx ry rz
  position 0 0 0
  orientation 0 0 0
:bonedata
  begin
    id 1
    name SpineDummy
    direction 0.999998 -0.00179978 1.38929e-006
    length 3.60008
    axis 0 0 0 xyz
  end
  begin
    id 2
    name Spine
    direction 0.964365 0.262802 0.0305839
    length 8.13928
    axis 1.33928 -1.75354 15.2838 xyz
    dof rx ry rz
  end
  begin
    id 3
    name Spine1
    direction 0.811168 0.572065 0.12144
    length 7.14954
    axis 2.2224 -6.9761 35.2157 xyz
    dof rx ry rz
  end
  begin
    id 4
    name Neck
    direction 0 0 0
    length 0
    axis 2.2224 -6.9761 35.2157 xyz
    dof rx ry rz
  end
  begin
    id 5
    name HeadDummy
    direction 0.810939 0.572387 0.121455
    length 3.55534
    axis 2.2224 -6.9761 35.2157 xyz
  end
  begin
    id 6
    name Head
    direction 0.998226 -0.000232542 0.0595419
    length 7.35666
    axis -3.03688 -3.41352 -0.0133467 xyz
    dof rx ry rz
  end
  begin
    id 7
    name R_ClavicleDummy
    direction 0.531669 -0.194489 -0.824319
    length 2.49392
    axis 2.2224 -6.9761 35.2157 xyz
  end
  begin
    id 8
    name R_Clavicle
    direction -0.155119 0.0480802 -0.986725
    length 4.485
    axis -54.2764 80.6538 162.779 xyz
    dof rx ry rz
  end
  begin
    id 9
    name R_UpperArm
    direction -0.955567 0.200068 -0.216484
    length 10.1122
    axis -72.9943 12.5026 168.175 xyz
    dof rx ry rz
  end
  begin
    id 10
    name R_Forearm
    direction -0.61433 0.385743 0.688332
    length 9.39148
    axis -117.015 -43.4982 147.875 xyz
    dof rx ry rz
  end
  begin
    id 11
    name R_Hand
    direction -0.699429 0.0170333 0.714499
    length 3.66324
    axis -45.0303 -36.7097 175.478 xyz
    dof rx ry rz
  end
  begin
    id 12
    name L_ClavicleDummy
    direction 0.40287 -0.36502 0.839319
    length 2.49392
    axis 2.2224 -6.9761 35.2157 xyz
  end
  begin
    id 13
    name L_Clavicle
    direction -0.231271 -0.0726419 0.970174
    length 4.485
    axis 18.4357 -75.9711 -162.563 xyz
    dof rx ry rz
  end
  begin
    id 14
    name L_UpperArm
    direction -0.917494 0.144359 0.370629
    length 10.1122
    axis 56.0417 -21.7544 171.058 xyz
    dof rx ry rz
  end
  begin
    id 15
    name L_Forearm
    direction -0.496786 0.615074 -0.612281
    length 9.39148
    axis 89.8094 37.7546 128.927 xyz
    dof rx ry rz
  end
  begin
    id 16
    name L_Hand
    direction -0.409932 0.64962 -0.640274
    length 3.66324
    axis -0.424369 32.133 128.52 xyz
    dof rx ry rz
  end
  begin
    id 17
    name L_ThighDummy
    direction -1.84081e-006 1.87549e-006 1
    length 3.13049
    axis 0 0 0 xyz
  end
  begin
    id 18
    name L_Thigh
    direction -0.947739 0.307978 0.083308
    length 17.9961
    axis 173.219 -4.77873 161.998 xyz
    dof rx ry rz
  end
  begin
    id 19
    name L_Calf
    direction -0.728814 -0.684427 0.0197583
    length 13.3367
    axis 167.331 -1.13214 -136.799 xyz
    dof rx ry rz
  end
  begin
    id 20
    name L_Foot
    direction -0.9028 0.418719 0.0981191
    length 5.8674
    axis 163.436 11.5135 -155.37 xyz
    dof rx ry rz
  end
  begin
    id 21
    name L_Toe0
    direction -0.35341 0.886259 0.299411
    length 4.75286
    axis 169.316 -17.4222 111.74 xyz
    dof rx ry rz
  end
  begin
    id 22
    name R_ThighDummy
    direction 9.32778e-007 -8.82053e-007 -1
    length 3.13049
    axis 0 0 0 xyz
  end
  begin
    id 23
    name R_Thigh
    direction -0.925064 0.37528 -0.0585023
    length 17.9961
    axis -178.698 3.35385 157.919 xyz
    dof rx ry rz
  end
  begin
    id 24
    name R_Calf
    direction -0.68969 -0.718776 -0.0876886
    length 13.3367
    axis -160.504 5.03065 -133.817 xyz
    dof rx ry rz
  end
  begin
    id 25
    name R_Foot
    direction -0.857405 0.418858 -0.299022
    length 5.8674
    axis -161.328 4.38911 -154.413 xyz
    dof rx ry rz
  end
  begin
    id 26
    name R_Toe0
    direction -0.100745 0.952789 -0.286433
    length 4.75286
    axis 171.683 16.6445 96.0359 xyz
    dof rx ry rz
  end
:hierarchy
  begin
    root SpineDummy L_ThighDummy R_ThighDummy
    SpineDummy Spine
    Spine Spine1
    Spine1 Neck
    Neck HeadDummy R_ClavicleDummy L_ClavicleDummy
    HeadDummy Head
    R_ClavicleDummy R_Clavicle
    R_Clavicle R_UpperArm
    R_UpperArm R_Forearm
    R_Forearm R_Hand
    L_ClavicleDummy L_Clavicle
    L_Clavicle L_UpperArm
    L_UpperArm L_Forearm
    L_Forearm L_Hand
    L_ThighDummy L_Thigh
    L_Thigh L_Calf
    L_Calf L_Foot
    L_Foot L_Toe0
    R_ThighDummy R_Thigh
    R_Thigh R_Calf
    R_Calf R_Foot
    R_Foot R_Toe0
  end

:SAMPLES-PER-SECOND 30
:FULLY-SPECIFIED
:DEGREES
234
root  0.663574 32.3354 -15.8348 -93.0623 -18.4721 -37.2444
Spine  -24.658 -24.419 6.86769
Spine1  -36.8618 43.8114 -39.6913
Neck  3.97569e-016 0 -2.38542e-015
Head  -1.80786 1.63705 8.66291
R_Clavicle  6.99028 20.5958 20.0204
R_UpperArm  47.0491 51.8647 -6.80504
R_Forearm  38.0674 -12.8473 13.6259
R_Hand  -31.6913 22.3315 -114.872
L_Clavicle  1.09579 -5.04277 -5.19844
L_UpperArm  -17.2537 -51.1372 -28.6683
L_Forearm  -46.0206 38.0387 67.328
L_Hand  0.164484 -6.94462 -5.86467
L_Thigh  -7.64687 52.952 24.0233
L_Calf  -25.3709 -9.8465 55.755
L_Foot  -0.633794 13.3852 -12.4552
L_Toe0  0.505156 0.0344459 -6.1361
R_Thigh  7.44343 -55.498 21.5021
R_Calf  -8.00722 11.8815 55.2278
R_Foot  3.36385 11.1087 -11.2562
R_Toe0  -1.78853 -0.27243 -17.3235
235
root  2.00396 32.4891 -15.6039 -110.333 -12.6628 -35.7678
Spine  -19.8718 -20.3879 4.36691
Spine1  -30.6669 39.9599 -36.208
Neck  3.97569e-016 0 -2.38542e-015
Head  -1.85031 3.56741 5.77654
R_Clavicle  6.33276 20.8628 18.1598
R_UpperArm  47.9142 47.4016 -9.73823
R_Forearm  43.0655 -11.4704 13.6346
R_Hand  -35.7625 22.9126 -121.276
L_Clavicle  1.03255 -5.45572 -4.71404
L_UpperArm  -21.8596 -47.5292 -25.7759
L_Forearm  -60.0292 35.0753 58.4381
L_Hand  -0.0472129 -7.57242 -8.81564
L_Thigh  -8.12363 52.7153 22.8377
L_Calf  -23.8755 -9.69277 55.8012
L_Foot  -2.21526 12.5473 -17.4264
L_Toe0  0.505156 0.0344459 -6.1361
R_Thigh  6.02271 -58.4763 20.1717
R_Calf  -1.98174 10.9918 53.7373
R_Foot  2.67361 7.64559 -10.582
R_Toe0  -1.78853 -0.272417 -17.3235
236
root  3.27437 32.3913 -15.7214 -128.145 -7.2735 -35.008
Spine  -14.5652 -15.4922 3.21366
Spine1  -23.8412 33.0045 -34.9081
Neck  3.97569e-016 0 -2.38542e-015
Head  -3.67909 5.322 4.06659
R_Clavicle  4.43992 20.0475 13.2537
R_UpperArm  51.7723 42.2907 -7.37557
R_Forearm  49.4024 -10.826 14.0311
R_Hand  -34.5541 19.7147 -125.392
L_Clavicle  1.06839 -5.14125 -5.02353
L_UpperArm  -35.9526 -38.7612 -8.47103
L_Forearm  -84.8065 16.689 23.6157
L_Hand  7.46503 -30.8454 -33.3346
L_Thigh  -8.92246 52.0011 21.535
L_Calf  -22.9929 -9.70717 55.6678
L_Foot  -2.6242 10.4423 -18.1991
L_Toe0  0.505156 0.0344459 -6.1361
R_Thigh  5.61361 -60.246 16.5912
R_Calf  5.55594 11.375 50.492
R_Foot  1.54955 2.20446 -9.8811
R_Toe0  -1.78853 -0.272404 -17.3235
237
root  4.37637 32.1568 -16.1901 -147.014 -2.35054 -34.627
Spine  -8.9021 -8.71011 3.13632
Spine1  -16.1882 22.3159 -34.9684
Neck  3.97569e-016 0 -2.38542e-015
Head  -6.4706 6.836 2.52958
R_Clavicle  2.13538 18.008 7.09785
R_UpperArm  57.1511 31.5212 -1.47266
R_Forearm  70.0725 -4.58395 9.586
R_Hand  -18.7288 7.58966 -121.746
L_Clavicle  0.659883 -2.53466 -3.66843
L_UpperArm  -37.1381 -35.41 -9.58623
L_Forearm  -90.8252 4.90466 10.5754
L_Hand  25.8222 -38.9762 -73.2189
L_Thigh  -9.45134 50.747 20.5421
L_Calf  -20.666 -9.535 55.0345
L_Foot  -3.51328 7.41344 -20.6566
L_Toe0  0.505156 0.0344459 -6.1361
R_Thigh  7.1975 -60.5745 12.207
R_Calf  9.23015 11.7567 48.8862
R_Foot  1.14913 0.720883 -8.87369
R_Toe0  -1.78853 -0.272391 -17.3235
238
root  5.2933 31.8356 -16.9929 -167.033 1.81754 -33.8623
Spine  -2.0151 1.04275 4.51318
Spine1  -6.24674 6.32199 -35.6724
Neck  3.97569e-016 0 -2.38542e-015
Head  -11.6133 7.55021 0.862791
R_Clavicle  0.526158 16.4938 2.56762
R_UpperArm  58.6756 21.9149 1.52163
R_Forearm  87.431 -2.55638 8.09104
R_Hand  -5.95935 -1.45585 -119.428
L_Clavicle  0.0836621 1.00235 -0.868915
L_UpperArm  -31.0669 -34.5575 -19.8371
L_Forearm  -75.9527 2.45109 8.33521
L_Hand  31.636 -32.7376 -95.778
L_Thigh  -9.6286 48.5753 19.1459
L_Calf  -17.2135 -8.78236 54.2927
L_Foot  -4.86673 5.72195 -25.8358
L_Toe0  0.505156 0.0344459 -6.1361
R_Thigh  7.59216 -60.1905 9.88302
R_Calf  10.0352 11.5896 48.9119
R_Foot  0.753281 -1.17843 -8.84116
R_Toe0  -1.78853 -0.272377 -17.3235
239
root  5.9277 31.3147 -18.0346 172.677 5.55713 -31.6971
Spine  6.34968 11.6307 8.44891
Spine1  5.74362 -12.4088 -36.9851
Neck  3.97569e-016 0 -2.38542e-015
Head  -18.9354 7.0999 -0.189734
R_Clavicle  -0.911153 15.0094 -2.0254
R_UpperArm  59.6303 15.5943 5.16625
R_Forearm  87.9392 -3.91647 8.31808
R_Hand  -10.7907 -1.36422 -110.951
L_Clavicle  -0.252223 4.60953 1.26816
L_UpperArm  -24.9701 -34.7035 -25.8756
L_Forearm  -61.5056 5.72859 9.17684
L_Hand  31.666 -34.0202 -94.6548
L_Thigh  -9.8513 45.0967 16.9992
L_Calf  -10.9755 -7.3108 53.2096
L_Foot  -5.83363 3.56165 -30.016
L_Toe0  0.505156 0.0344459 -6.1361
R_Thigh  6.23663 -60.906 11.0455
R_Calf  9.57132 11.0715 49.273
R_Foot  0.372914 -3.55622 -9.66958
R_Toe0  -1.78853 -0.272364 -17.3235
240
root  6.12336 30.4837 -19.0463 153.432 10.5635 -27.7325
Spine  14.7093 18.8879 14.0058
Spine1  16.4336 -26.5888 -37.5447
Neck  3.97569e-016 0 -2.38542e-015
Head  -24.5839 6.60402 0.0441344
R_Clavicle  -0.497122 12.5926 -0.982217
R_UpperArm  57.5192 18.4227 4.8795
R_Forearm  62.1482 -9.4981 9.40858
R_Hand  -50.8194 42.5875 -121.163
L_Clavicle  -0.383886 7.6504 2.31337
L_UpperArm  -21.8004 -36.6228 -24.6278
L_Forearm  -60.971 9.23956 8.43801
L_Hand  30.6567 -37.1251 -86.0058
L_Thigh  -10.6954 41.7144 14.996
L_Calf  -0.54045 -6.40526 50.9355
L_Foot  -6.08821 -1.02879 -31.6281
L_Toe0  0.505156 0.0344459 -6.1361
R_Thigh  4.16238 -63.0165 14.8783
R_Calf  9.70633 10.5766 50.2341
R_Foot  0.264991 -4.32619 -9.96961
R_Toe0  -1.78853 -0.27235 -17.3235
241
root  5.93849 29.2623 -19.6826 136.106 18.9919 -22.9987
Spine  21.1391 23.2736 19.193
Spine1  22.3492 -33.1163 -36.2796
Neck  3.97569e-016 0 -2.38542e-015
Head  -25.0468 7.76072 1.78394
R_Clavicle  -0.206842 7.33725 -0.294638
R_UpperArm  49.1135 25.9348 0.536985
R_Forearm  38.5892 -27.0501 18.7157
R_Hand  -8.86049 44.3718 -34.5244
L_Clavicle  -0.471773 9.92487 3.5955
L_UpperArm  -21.8462 -37.3174 -20.2625
L_Forearm  -57.1224 11.8619 9.26734
L_Hand  30.9098 -39.2197 -82.5281
L_Thigh  -11.6572 39.4154 12.0852
L_Calf  8.87845 -5.80013 48.939
L_Foot  -5.95525 -6.26957 -31.4736
L_Toe0  0.505156 0.0344459 -6.1361
R_Thigh  1.64588 -64.7305 20.3923
R_Calf  11.2948 10.2908 51.672
R_Foot  0.0862722 -5.27297 -10.0146
R_Toe0  -1.78853 -0.272336 -17.3235
242
root  5.72843 27.6304 -19.7511 120.955 30.7619 -19.1973
Spine  25.2368 26.9749 23.5427
Spine1  23.8081 -34.5191 -33.598
Neck  3.97569e-016 0 -2.38542e-015
Head  -21.1586 11.0879 5.67765
R_Clavicle  -0.746245 0.237616 -3.66812
R_UpperArm  30.3753 29.6691 -3.33537
R_Forearm  24.8911 -33.9331 22.5931
R_Hand  -0.371259 14.3684 -13.5003
L_Clavicle  -0.508902 11.3852 4.6145
L_UpperArm  -27.2807 -32.9409 -11.3828
L_Forearm  -45.8424 11.3817 10.9446
L_Hand  30.2423 -37.5662 -84.3936
L_Thigh  -10.2705 36.7007 8.14592
L_Calf  11.2805 -4.11101 46.7069
L_Foot  -5.7521 -7.92314 -30.2159
L_Toe0  0.505156 0.0344459 -6.1361
R_Thigh  -1.9765 -65.1351 26.9491
R_Calf  11.5392 10.2852 52.1019
R_Foot  -0.229215 -6.65283 -9.75445
R_Toe0  -1.78853 -0.272321 -17.3235
243
root  5.76584 25.7504 -19.3153 107.068 43.8303 -17.137
Spine  27.5141 30.3503 26.2172
Spine1  22.7016 -32.9797 -29.8447
Neck  3.97569e-016 0 -2.38542e-015
Head  -15.6844 15.18 12.2788
R_Clavicle  -1.28839 -2.39935 -7.54975
R_UpperArm  11.5946 19.1978 5.85106
R_Forearm  28.5686 -10.8179 9.82203
R_Hand  1.02232 9.81114 -5.00526
L_Clavicle  -0.491789 12.7334 4.57981
L_UpperArm  -35.1741 -25.1063 0.660147
L_Forearm  -34.7449 9.51165 12.3152
L_Hand  30.2099 -36.6047 -86.1785
L_Thigh  -9.59715 33.6633 3.46553
L_Calf  9.56868 -3.85426 44.6597
L_Foot  -5.81232 -5.57445 -30.3732
L_Toe0  0.505156 0.0344459 -6.1361
R_Thigh  -7.317 -64.2384 35.1757
R_Calf  9.36071 10.5184 51.2213
R_Foot  -0.356694 -6.18305 -8.40271
R_Toe0  -1.78853 -0.272307 -17.3235
244
root  6.19853 23.7681 -18.5896 93.7825 56.9664 -16.2245
Spine  27.8216 33.0399 26.7542
Spine1  19.9508 -29.8804 -25.2061
Neck  3.97569e-016 0 -2.38542e-015
Head  -9.82921 18.0509 21.1258
R_Clavicle  -1.12037 -2.54628 -6.65154
R_UpperArm  10.8753 11.4885 13.3131
R_Forearm  20.1112 3.67431 -3.08586
R_Hand  0.857775 7.16461 -3.65514
L_Clavicle  -0.484214 13.192 4.50114
L_UpperArm  -41.122 -15.7879 12.5159
L_Forearm  -28.8846 8.09415 13.0661
L_Hand  33.0071 -37.2018 -90.4199
L_Thigh  -15.3513 30.9244 -2.09313
L_Calf  11.7889 -5.98497 44.272
L_Foot  -6.06955 -4.8783 -32.0739
L_Toe0  0.505156 0.0344459 -6.1361
R_Thigh  -12.5021 -61.6145 44.849
R_Calf  7.51227 10.8272 50.4027
R_Foot  -0.294797 -4.7294 -6.83721
R_Toe0  -1.78853 -0.272293 -17.3235
245
root  7.08674 21.6486 -17.5882 78.2347 70.8609 -19.2346
Spine  25.9012 34.351 26.1954
Spine1  15.9988 -26.0094 -19.8464
Neck  3.97569e-016 0 -2.38542e-015
Head  -4.12916 18.3971 31.1344
R_Clavicle  -0.704687 -1.28894 -3.91281
R_UpperArm  13.1382 8.47761 21.966
R_Forearm  15.1293 16.6875 -14.4504
R_Hand  1.07982 8.79127 -3.84411
L_Clavicle  -0.504658 11.7947 4.60775
L_UpperArm  -43.0203 -5.23773 21.683
L_Forearm  -25.6305 8.48312 14.7254
L_Hand  37.2883 -35.9228 -100.55
L_Thigh  -20.1946 26.6187 -6.04403
L_Calf  16.3441 -6.37656 40.3301
L_Foot  -5.51078 -6.16391 -28.3178
L_Toe0  0.505156 0.0344459 -6.1361
R_Thigh  -15.8674 -58.1903 53.8024
R_Calf  6.82843 11.2478 49.6203
R_Foot  -0.345424 -4.28364 -5.83513
R_Toe0  -1.78853 -0.272278 -17.3235
246
root  8.64138 19.5704 -16.547 70.0413 85.7486 -17.2756
Spine  22.9244 34.7415 25.2273
Spine1  11.8559 -21.2571 -14.6554
Neck  3.97569e-016 0 -2.38542e-015
Head  -0.112075 16.5483 40.6893
R_Clavicle  -0.610557 2.14329 -2.69519
R_UpperArm  25.3545 7.69684 33.1264
R_Forearm  5.51162 28.5232 -26.8692
R_Hand  1.34206 9.04592 -2.22642
L_Clavicle  -0.525165 9.05862 4.37715
L_UpperArm  -41.5482 5.97812 27.4332
L_Forearm  -21.5039 11.1529 18.0608
L_Hand  41.3346 -32.7096 -112.921
L_Thigh  -18.1568 21.187 -7.36222
L_Calf  17.6261 -4.35758 33.9859
L_Foot  -3.86478 -3.88128 -18.1801
L_Toe0  0.505156 0.0344458 -6.1361
R_Thigh  -17.1407 -55.0325 59.1239
R_Calf  6.46026 11.8467 47.9515
R_Foot  -0.586779 -4.56924 -4.6881
R_Toe0  -1.78853 -0.272263 -17.3235
247
root  10.7051 17.85 -15.9555 -82.2566 79.7809 -161.469
Spine  19.1971 34.1782 22.5952
Spine1  8.35191 -15.6917 -9.90164
Neck  3.97569e-016 0 -2.38542e-015
Head  1.35138 13.8298 47.9925
R_Clavicle  -0.468133 7.30401 -1.32452
R_UpperArm  44.4427 6.71411 43.3792
R_Forearm  -3.49893 37.5366 -39.691
R_Hand  0.841795 9.84168 -6.71427
L_Clavicle  -0.541787 6.2805 4.27474
L_UpperArm  -38.7343 16.5691 30.6591
L_Forearm  -16.3343 14.7678 21.7863
L_Hand  46.0962 -30.9305 -122.558
L_Thigh  -13.7048 17.3749 -6.84006
L_Calf  13.9793 -4.14467 31.3657
L_Foot  -2.23331 -2.50368 -8.83203
L_Toe0  0.505156 0.0344458 -6.1361
R_Thigh  -17.8582 -52.5584 61.7998
R_Calf  6.03296 12.1586 45.9499
R_Foot  -0.653771 -4.33642 -3.88092
R_Toe0  -1.78853 -0.272248 -17.3235
248
root  12.7911 16.565 -16.0007 -106.175 68.2508 -178.871
Spine  14.5933 32.2843 17.767
Spine1  5.432 -9.68982 -4.93256
Neck  3.97569e-016 0 -2.38542e-015
Head  0.982607 11.072 51.7371
R_Clavicle  0.35542 10.3212 1.92935
R_UpperArm  64.8188 3.55921 48.519
R_Forearm  -7.4453 42.5514 -49.7157
R_Hand  -1.04548 12.9126 -19.7073
L_Clavicle  -0.636241 4.45461 5.02134
L_UpperArm  -35.0944 25.6379 33.442
L_Forearm  -10.66 17.6236 23.9989
L_Hand  47.1023 -29.3061 -127.041
L_Thigh  -13.2361 16.5238 -4.62078
L_Calf  9.84571 -4.65857 34.7339
L_Foot  -2.43521 -7.54019 -4.0408
L_Toe0  0.505156 0.0344458 -6.1361
R_Thigh  -18.8385 -50.8395 62.6682
R_Calf  4.82606 12.0155 45.238
R_Foot  -0.583878 -4.40929 -4.45086
R_Toe0  -1.78853 -0.272233 -17.3235
